<svg id="Layer_1" data-name="Layer 1" xmlns="http://www.w3.org/2000/svg" viewBox="0 0 658.82 560.63"><defs><style>.cls-1{fill:#fff;}.cls-2{fill:none;}.cls-2,.cls-3{stroke:#000;stroke-miterlimit:10;stroke-width:3px;}.cls-4{font-size:30.08px;font-family:MyriadPro-Regular, Myriad Pro;}</style></defs><title>model</title><path class="cls-1" d="M421.83,592.53a184.46,184.46,0,1,1,91.07-23.95A184.43,184.43,0,0,1,421.83,592.53Z" transform="translate(-129.84 -50.4)"/><path d="M422.18,225a182.93,182.93,0,1,1-90.34,23.75A182.92,182.92,0,0,1,422.18,225h0m0-3a185.92,185.92,0,0,0-161.25,93C209.56,404,240,517.72,329,569.08A185.92,185.92,0,0,0,583.08,501C634.44,412,604,298.28,515,246.92A185.16,185.16,0,0,0,422.17,222Z" transform="translate(-129.84 -50.4)"/><rect class="cls-1" x="292.41" y="223.02" width="73" height="49" transform="translate(-209.54 147.21) rotate(-30)"/><path d="M347.72,210.1l23,39.84-60.62,35-23-39.84,60.62-35m1.1-4.1L283,244l26,45,65.82-38-26-45Z" transform="translate(-129.84 -50.4)"/><rect class="cls-1" x="304.59" y="533.02" width="49" height="73" transform="translate(-458.51 519.36) rotate(-60)"/><path d="M310.28,532.1l60.62,35-23,39.84-60.62-35,23-39.84m-1.1-4.1-26,45L349,611l26-45-65.82-38Z" transform="translate(-129.84 -50.4)"/><rect class="cls-1" x="453.66" y="321.1" width="49" height="73"/><path d="M631,373v70H585V373h46m3-3H582v76h52V370Z" transform="translate(-129.84 -50.4)"/><path class="cls-2" d="M307.35,215.79c-106.62,63.38-141.86,201.13-78.68,307.94A223.8,223.8,0,0,0,311.49,605" transform="translate(-129.84 -50.4)"/><polyline class="cls-2" points="618.16 358.1 292.66 358.1 292.66 50.85"/><polygon class="cls-3" points="182.35 554.63 168.3 552.49 173.5 543.6 182.35 554.63"/><polygon class="cls-3" points="180.34 164.28 168.25 177.24 163.16 168.63 180.34 164.28"/><polygon class="cls-3" points="293.03 39.09 298.02 56.1 288.02 56.09 293.03 39.09"/><polygon class="cls-3" points="631.7 357.68 614.66 362.54 614.73 352.54 631.7 357.68"/><text class="cls-4" transform="translate(641.03 369.08) scale(1.04 1)">X</text><text class="cls-4" transform="translate(284.84 25.18)">Y</text><text class="cls-4" transform="translate(0 369.08) scale(1.04 1)">120°</text></svg>